<?xml version="1.0" encoding="UTF-8" standalone="no" ?>
<!DOCTYPE svg PUBLIC "-//W3C//DTD SVG 1.1//EN"
    "http://www.w3.org/Graphics/SVG/1.1/DTD/svg11.dtd">
<svg
    preserveAspectRatio="xMidYMid meet"
    viewBox="0 0 3919 3919"
    version="1.1"
    xmlns="http://www.w3.org/2000/svg"
    xmlns:xlink="http://www.w3.org/1999/xlink"
    xml:space="preserve"
    xmlns:serif="http://www.serif.com/"
    style="fill-rule:evenodd;clip-rule:evenodd;stroke-linejoin:round;stroke-miterlimit:2;"
>
    <g
        id="Page-1"
        serif:id="Page 1"
        transform="matrix(4.166667,0,0,4.166667,0,0)"
    >
        <rect x="0" y="0" width="940.5" height="940.5" style="fill:none;" />
        <g filter="url(#seamfill)"><g id="Layer-1" serif:id="Layer 1">
            <g
                    transform="matrix(12.514282,0,0,-12.514282,332.058411,900.777198)"
                >
                <path
                        d="M1,-0.153C0.999,-0.153 0.999,-0.152 0.998,-0.152C0.999,-0.153 1,-0.153 1,-0.153C0.664,-0.056 0.331,0.046 0,0.153C0.525,-0.029 0.677,-0.064 1,-0.153ZM0.959,-0.139L0.959,-0.139L0.959,-0.139ZM0.959,-0.139L0.959,-0.139L0.959,-0.139ZM0.959,-0.139C0.959,-0.139 0.959,-0.139 0.959,-0.139C0.959,-0.139 0.959,-0.139 0.959,-0.139ZM0.959,-0.139L0.959,-0.139L0.959,-0.139ZM0.959,-0.139C0.959,-0.139 0.959,-0.139 0.959,-0.139C0.959,-0.139 0.959,-0.139 0.959,-0.139ZM0.959,-0.139C0.959,-0.139 0.959,-0.139 0.959,-0.139C0.959,-0.139 0.959,-0.139 0.959,-0.139ZM0.96,-0.14C0.96,-0.14 0.96,-0.139 0.959,-0.139C0.96,-0.139 0.96,-0.14 0.96,-0.14ZM0.961,-0.14C0.961,-0.14 0.96,-0.14 0.96,-0.14C0.96,-0.14 0.961,-0.14 0.961,-0.14ZM0.965,-0.141C0.963,-0.14 0.962,-0.14 0.961,-0.14C0.962,-0.14 0.963,-0.141 0.965,-0.141ZM0.965,-0.141C0.965,-0.141 0.965,-0.141 0.965,-0.141C0.965,-0.141 0.965,-0.141 0.965,-0.141ZM0.979,-0.146C0.973,-0.144 0.969,-0.142 0.965,-0.141C0.969,-0.143 0.974,-0.144 0.979,-0.146ZM0.98,-0.146C0.98,-0.146 0.979,-0.146 0.979,-0.146C0.979,-0.146 0.979,-0.146 0.98,-0.146ZM0.981,-0.147C0.981,-0.146 0.98,-0.146 0.98,-0.146C0.98,-0.146 0.981,-0.146 0.981,-0.147ZM0.982,-0.147C0.982,-0.147 0.981,-0.147 0.981,-0.147C0.981,-0.147 0.982,-0.147 0.982,-0.147ZM0.987,-0.148C0.985,-0.148 0.983,-0.147 0.982,-0.147C0.983,-0.147 0.985,-0.148 0.987,-0.148ZM0.987,-0.148C0.987,-0.148 0.987,-0.148 0.987,-0.148C0.987,-0.148 0.987,-0.148 0.987,-0.148ZM0.99,-0.15C0.989,-0.149 0.988,-0.149 0.987,-0.148C0.988,-0.149 0.989,-0.149 0.99,-0.15ZM0.991,-0.15C0.991,-0.15 0.991,-0.15 0.99,-0.15C0.991,-0.15 0.991,-0.15 0.991,-0.15ZM0.993,-0.15C0.992,-0.15 0.991,-0.15 0.991,-0.15C0.991,-0.15 0.992,-0.15 0.993,-0.15ZM0.994,-0.151C0.994,-0.151 0.993,-0.151 0.993,-0.15C0.993,-0.151 0.994,-0.151 0.994,-0.151ZM0.996,-0.151C0.995,-0.151 0.995,-0.151 0.994,-0.151C0.995,-0.151 0.995,-0.151 0.996,-0.151ZM0.996,-0.152C0.996,-0.151 0.996,-0.151 0.996,-0.151C0.996,-0.151 0.996,-0.151 0.996,-0.152ZM0.998,-0.152C0.998,-0.152 0.997,-0.152 0.996,-0.152C0.997,-0.152 0.998,-0.152 0.998,-0.152ZM0.998,-0.152L0.998,-0.152L0.998,-0.152L0.998,-0.152L0.998,-0.152Z"
                        style="fill:url(#_Linear1);fill-rule:nonzero;"
                    />
            </g>
            <g
                    transform="matrix(-91.05883,156.352936,156.352936,91.05883,603.052676,460.858298)"
                >
                <path
                        d="M0.243,0.045C0.233,-0.094 0.266,-0.21 0.318,-0.304C0.318,-0.304 0.35,-0.217 0.457,-0.172C0.596,-0.113 0.771,-0.15 0.892,-0.127C0.973,-0.111 1.019,-0.093 1.044,-0.08C0.876,-0.003 0.741,0.11 0.619,0.214C0.586,0.242 0.541,0.273 0.49,0.304C0.652,0.149 0.72,0.033 0.72,0.033C0.546,0.12 0.341,0.16 0.102,0.146L0.1,0.303L0.035,0.273C0.026,0.252 0.018,0.232 0.01,0.211C-0.036,0.007 -0,-0.154 0.056,-0.303C0.037,-0.142 0.118,-0.037 0.243,0.045Z"
                        style="fill:url(#_Linear2);fill-rule:nonzero;"
                    />
            </g>
            <g
                    transform="matrix(-240.231735,-71.855026,-71.855026,240.231735,818.889505,461.499433)"
                >
                <path
                        d="M1,-0.755C0.99,-0.742 0.981,-0.73 0.972,-0.717C0.701,-0.539 0.714,-0.302 0.714,-0.302L0.714,-0.302C0.653,-0.271 0.597,-0.222 0.546,-0.154C0.649,-0.183 0.726,-0.178 0.796,-0.163C0.674,-0.113 0.57,-0.027 0.511,0.16L0.495,0.213C0.495,0.213 0.582,0.203 0.678,0.214C0.661,0.246 0.649,0.28 0.64,0.315L0.63,0.366L0.74,0.34C0.771,0.511 0.833,0.647 0.924,0.755C0.924,0.755 0.831,0.727 0.695,0.64C0.649,0.594 0.599,0.539 0.558,0.49C0.31,0.37 -0,0.385 -0,0.385C0.115,0.04 0.288,-0.262 0.638,-0.43L0.569,-0.408C0.663,-0.562 0.782,-0.697 1,-0.755L1,-0.755Z"
                        style="fill:url(#_Linear3);fill-rule:nonzero;"
                    />
            </g>
            <g
                    transform="matrix(-26.470589,-87,-87,26.470589,429.035596,223.283929)"
                >
                <path
                        d="M1.198,-0.112C1.205,-0.086 1.018,0.032 0.653,0.126C0.288,0.221 -0.037,0.228 -0.037,0.228L-0.037,0.228C-0.006,0.166 0.019,0.103 0.041,0.039L0.041,0.039C0.041,0.039 0.089,0.06 0.224,0.047C0.359,0.034 0.394,0.004 0.398,-0.006C0.402,-0.016 0.293,-0.131 0.096,-0.168C0.099,-0.183 0.102,-0.197 0.105,-0.212C0.152,-0.217 0.228,-0.222 0.32,-0.225C0.409,-0.227 0.515,-0.227 0.627,-0.22C0.946,-0.201 1.19,-0.139 1.198,-0.113C1.198,-0.113 1.198,-0.112 1.198,-0.112Z"
                        style="fill:url(#_Linear4);fill-rule:nonzero;"
                    />
            </g>
            <g
                    transform="matrix(54.352943,37.058823,37.058823,-54.352943,625.354134,436.958044)"
                >
                <path
                        d="M0.425,-0.211C0.761,-0.061 1.088,0.004 1.088,0.004L0.969,0.179C0.617,0.197 0.301,0.154 0.01,0.064L0.01,0.064C0.175,-0.007 0.311,-0.101 0.425,-0.211Z"
                        style="fill:url(#_Linear5);fill-rule:nonzero;"
                    />
            </g>
            <g
                    transform="matrix(141.176483,-496.941162,-496.941162,-141.176483,597.079909,768.512832)"
                >
                <path
                        d="M1.064,0.231C1.063,0.231 1.063,0.23 1.062,0.23L1.062,0.23C1.033,0.124 0.966,0.067 0.891,0.023L0.902,0.056C0.818,-0.113 0.67,-0.194 0.502,-0.248C0.502,-0.248 0.512,-0.098 0.455,0.023C0.432,0.044 0.405,0.068 0.383,0.091C0.369,0.106 0.356,0.12 0.348,0.133C0.315,0.179 0.279,0.229 0.229,0.269C0.215,0.281 0.2,0.291 0.183,0.301C0.167,0.311 0.15,0.318 0.133,0.323C0.119,0.318 0.103,0.312 0.086,0.302C-0.022,0.244 -0.03,0.135 -0.015,0.082C-0,0.029 0.025,-0.05 0.169,-0.163C0.318,-0.279 0.476,-0.24 0.476,-0.24C0.442,-0.268 0.398,-0.286 0.348,-0.298C0.427,-0.315 0.513,-0.317 0.614,-0.294C0.653,-0.274 0.69,-0.249 0.723,-0.22C0.707,-0.249 0.688,-0.277 0.661,-0.303C0.737,-0.286 0.804,-0.256 0.857,-0.206C0.892,-0.173 0.921,-0.131 0.941,-0.078C0.947,-0.105 0.946,-0.136 0.941,-0.17C1.029,-0.073 1.086,0.066 1.064,0.231L1.064,0.231Z"
                        style="fill:url(#_Linear6);fill-rule:nonzero;"
                    />
            </g>
            <g
                    transform="matrix(15.441175,-9.088235,-9.088235,-15.441175,417.109314,207.39987)"
                >
                <path
                        d="M0.626,0.854C0.571,0.847 0.383,0.712 0.159,0.061C-0.064,-0.591 -0.021,-0.855 -0.021,-0.855L-0.021,-0.855C0.348,-0.823 0.712,-0.815 1.065,-0.827C1.115,0.147 0.716,0.804 0.635,0.852C0.631,0.854 0.629,0.855 0.626,0.854Z"
                        style="fill:url(#_Linear7);fill-rule:nonzero;"
                    />
            </g>
            <g
                    transform="matrix(-9.882353,-95.76471,-95.76471,9.882353,679.50215,329.880667)"
                >
                <path
                        d="M0.952,0.278C0.479,0.213 0.129,0.346 0.129,0.346C0.076,0.26 0.01,0.183 -0.068,0.116L-0.068,0.116C-0.068,0.116 0.489,-0.153 1.187,0.322C1.104,0.303 1.024,0.287 0.952,0.278Z"
                        style="fill:url(#_Linear8);fill-rule:nonzero;"
                    />
            </g>
            <g
                    transform="matrix(83.911758,49.676468,49.676468,-83.911758,559.142748,433.583513)"
                >
                <path
                        d="M-0.031,-0.119C0.245,-0.013 0.542,0.055 0.921,-0.027C0.616,0.082 0.302,0.078 -0.024,-0.115C-0.026,-0.116 -0.029,-0.118 -0.031,-0.119Z"
                        style="fill:url(#_Linear9);fill-rule:nonzero;"
                    />
            </g>
            <g
                    transform="matrix(86.293184,7.844835,7.844835,-86.293184,600.051097,423.605185)"
                >
                <path
                        d="M0.335,-0.088L0.335,-0.088C0.561,-0.136 0.787,-0.224 1.013,-0.366C0.762,-0.001 0.442,0.197 0.038,0.191C0.163,0.102 0.26,0.008 0.335,-0.088Z"
                        style="fill:url(#_Linear10);fill-rule:nonzero;"
                    />
            </g>
            <g
                    transform="matrix(338.823517,-462.352936,-462.352936,-338.823517,588.301648,930.331619)"
                >
                <path
                        d="M1.025,0.249C0.997,0.191 0.949,0.145 0.891,0.106C0.905,0.136 0.912,0.166 0.917,0.196C0.898,0.161 0.875,0.128 0.848,0.099C0.653,-0.117 0.266,-0.171 -0.024,0.079C0.192,-0.134 0.502,-0.197 0.779,-0.1C0.896,-0.048 1.006,0.073 1.025,0.249L1.025,0.249Z"
                        style="fill:url(#_Linear11);fill-rule:nonzero;"
                    />
            </g>
            <g
                    transform="matrix(201.177032,645.884155,645.884155,-201.177032,110.305277,182.384075)"
                >
                <path
                        d="M0.343,-0.217C0.457,-0.265 0.657,-0.302 0.857,-0.204C0.997,-0.135 1.075,-0.048 1.109,-0.002C1.112,0.003 1.116,0.009 1.12,0.014C1.038,-0.097 0.865,-0.227 0.671,-0.198C0.628,-0.191 0.591,-0.179 0.559,-0.164C0.514,-0.144 0.48,-0.117 0.453,-0.091C0.392,-0.03 0.372,0.033 0.372,0.033C0.372,0.033 0.42,-0.002 0.483,0.007C0.515,0.012 0.543,0.025 0.568,0.042C0.624,0.082 0.639,0.123 0.705,0.167C0.734,0.187 0.783,0.218 0.887,0.223C0.887,0.223 0.851,0.242 0.821,0.279C0.813,0.289 0.805,0.3 0.798,0.314C0.791,0.317 0.784,0.322 0.777,0.326C0.688,0.152 0.526,0.071 0.384,0.082C0.279,0.09 0.12,0.151 0.043,0.339C-0.015,0.015 0.228,-0.17 0.343,-0.217Z"
                        style="fill:url(#_Linear12);fill-rule:nonzero;"
                    />
            </g>
            <g
                    transform="matrix(-1.882353,136.470581,136.470581,1.882353,501.796261,481.899519)"
                >
                <path
                        d="M0.09,-0.235C0.09,-0.235 0.09,-0.235 0.09,-0.235C0.119,-0.191 0.188,-0.114 0.317,-0.114C0.485,-0.114 0.605,-0.276 0.605,-0.276C0.614,-0.18 0.581,-0.081 0.511,0.021C0.663,-0.054 0.822,-0.122 1.004,-0.167C1.043,-0.177 1.083,-0.185 1.124,-0.192C1.074,-0.141 1.029,-0.087 0.989,-0.032C0.952,-0.031 0.887,-0.022 0.783,0.012C0.628,0.064 0.45,0.221 0.252,0.244C0.099,0.261 0.004,0.182 0.004,0.182C0.004,0.174 0.004,0.166 0.004,0.159C0.006,0.011 0.045,-0.125 0.09,-0.235Z"
                        style="fill:url(#_Linear13);fill-rule:nonzero;"
                    />
            </g>
            <g
                    transform="matrix(-51.882355,-70.941177,-70.941177,51.882355,508.648095,224.475994)"
                >
                <path
                        d="M1.039,-0.081C1.127,0.091 1.059,0.216 1.059,0.216C1.059,0.216 0.906,0.292 0.782,0.394C0.692,0.428 0.621,0.46 0.575,0.48C0.501,0.01 0.274,-0.345 0.274,-0.345C0.26,-0.034 0.131,0.23 -0.177,0.421C-0.016,0.22 0.145,-0.122 0.272,-0.435C0.278,-0.45 0.284,-0.465 0.29,-0.48C0.36,-0.468 0.471,-0.449 0.6,-0.423C0.601,-0.423 0.864,-0.33 1.001,-0.143C1.015,-0.124 1.028,-0.103 1.039,-0.081Z"
                        style="fill:url(#_Linear14);fill-rule:nonzero;"
                    />
            </g>
            <g
                    transform="matrix(-9.411765,-136,-136,9.411765,453.752883,245.269165)"
                >
                <path
                        d="M1.114,0.271C1.09,0.349 0.857,0.403 0.633,0.415C0.409,0.427 0.044,0.392 0.044,0.392L0.044,0.391C0.07,0.366 0.093,0.34 0.115,0.313L0.115,0.313C0.115,0.313 0.328,0.357 0.579,0.35C0.83,0.343 0.97,0.294 0.969,0.276C0.968,0.258 0.819,0.181 0.614,0.12C0.542,0.099 0.473,0.083 0.415,0.072C0.518,0.059 0.628,0.069 0.628,0.069C0.628,0.069 0.708,0.025 0.719,-0.099C0.734,-0.264 0.597,-0.436 0.597,-0.437C0.69,-0.348 0.799,-0.239 0.879,-0.143C0.999,0.003 1.111,0.156 1.117,0.242C1.118,0.253 1.117,0.263 1.114,0.271Z"
                        style="fill:url(#_Linear15);fill-rule:nonzero;"
                    />
            </g>
            <g transform="matrix(1,0,0,1,918.7646,445.1091)">
                <path
                        d="M0,21.472C0,-229.132 -200.859,-432.285 -448.632,-432.285C-696.405,-432.285 -897.265,-229.132 -897.265,21.472C-897.265,223.845 -768.581,395.268 -586.706,453.757C-623.178,441.127 -695.365,408.481 -768.059,331.818C-871.471,222.758 -887.706,85.582 -879.941,2.288C-872.176,-81.006 -802.059,-275.594 -581,-303.359C-686.823,-215.447 -693.94,-100.402 -678.353,-31.447C-657.042,62.828 -571.568,150.963 -441.662,173.538C-435.188,148.751 -425.53,127.207 -415,106.553C-429.055,115.954 -442.644,120.252 -455.706,118.788C-455.706,118.788 -433.376,102.757 -433.132,79.818C-432.945,62.208 -443.196,52.681 -449.26,48.589C-460.845,53.033 -470.472,57.895 -477.368,61.229C-502.426,73.347 -522.691,86.729 -542.456,87.524C-555.522,88.048 -567.771,84.767 -578.733,79.254C-584.353,76.428 -589.641,73.027 -594.515,69.229C-600.22,64.785 -601.674,60.766 -600.235,55.786C-599.412,52.936 -597.646,49.773 -595.169,46.028C-591.065,39.825 -585.037,32.037 -578.221,21.472C-560.103,-6.609 -557.515,-36.8 -559.868,-67.388C-562.221,-97.977 -565.456,-142.977 -522.044,-198.035C-520.942,-199.433 -519.812,-200.79 -518.667,-202.123L-518.669,-202.131C-518.669,-202.131 -526.956,-251.418 -527.426,-282.006C-527.897,-312.594 -522.721,-344.83 -512.368,-348.83C-502.015,-352.83 -477.367,-337.537 -453.897,-320.712C-440.018,-310.762 -424.124,-296.935 -411.234,-285.133C-402.738,-277.354 -395.555,-270.464 -391.114,-266.142C-371.781,-296.846 -352.057,-321.292 -340.897,-321.8C-327.154,-322.426 -302.112,-278.643 -286.36,-238.054L-286.359,-238.055C-201.431,-225.554 -140.073,-177.8 -104.367,-120.271C-120.384,-127.242 -135.734,-132.233 -149.779,-133.33C-126.509,-115.704 -109.757,-95.545 -98.248,-73.347L-98.244,-73.347C-23.184,-4.503 -4.585,87.52 -20.339,158.931C-7.095,115.571 0,69.391 0,21.472"
                        style="fill:rgb(36,40,75);fill-rule:nonzero;"
                    />
            </g>
            <g
                    transform="matrix(82.941177,-79.76471,-79.76471,-82.941177,389.239745,438.148362)"
                >
                <path
                        d="M0.448,0.128C0.311,0.11 0.203,-0.027 0.135,-0.076C0.073,-0.12 -0.028,-0.151 -0.049,-0.157C-0.051,-0.158 -0.053,-0.158 -0.053,-0.158L0.065,-0.138C0.065,-0.138 0.144,-0.109 0.219,-0.076C0.294,-0.042 0.348,-0.007 0.426,-0.003C0.513,0.001 0.589,-0.032 0.752,-0.136L0.901,-0.105C0.663,0.111 0.581,0.145 0.448,0.128Z"
                        style="fill:url(#_Linear16);fill-rule:nonzero;"
                    />
            </g>
            <g transform="matrix(0.223572,0,0,-0.223572,397.514709,455.291198)">
                <path
                        d="M0.001,-0.871C0.001,-0.871 0.368,-0.241 0.999,0.873L0.001,-0.871Z"
                        style="fill:url(#_Linear17);fill-rule:nonzero;"
                    />
            </g>
            <g
                    transform="matrix(118.421326,0,0,-118.421326,469.505127,486.91083)"
                >
                <path
                        d="M-0,-0.057L0,-0.057C0.135,-0.006 0.301,0.039 0.482,0.035C0.647,0.03 0.824,-0.015 1,-0.135C1,-0.135 0.892,0.088 0.61,0.128C0.587,0.132 0.564,0.134 0.539,0.134C0.533,0.135 0.528,0.135 0.522,0.135C0.241,0.135 -0,-0.057 -0,-0.057Z"
                        style="fill:url(#_Linear18);fill-rule:nonzero;"
                    />
            </g>
            <g transform="matrix(1,0,0,1,331.103,491.1374)">
                <path
                        d="M0,15.848C7.449,15.849 14.735,11.877 18.443,9.49C17.007,7.918 14.752,6.879 11.941,6.083C4.884,4.083 -7.502,0.001 -7.508,-0.001C-9.985,3.744 -11.75,6.908 -12.574,9.758C-12.509,9.852 -8.347,15.847 0,15.848"
                        style="fill:rgb(37,42,81);fill-rule:nonzero;"
                    />
            </g>
            <g transform="matrix(1,0,0,1,350.3638,523.2594)">
                <path
                        d="M0,-21.528C-0.23,-21.924 -0.505,-22.291 -0.818,-22.632C-4.525,-20.245 -11.812,-16.273 -19.261,-16.274C-27.608,-16.275 -31.77,-22.27 -31.834,-22.364C-33.273,-17.384 -31.819,-13.366 -26.114,-8.922C-21.24,-5.124 -15.952,-1.722 -10.332,1.104C-7.874,-0.701 -3.886,-4.376 -1.025,-10.745C1.247,-15.805 1.369,-19.172 0,-21.528"
                        style="fill:rgb(20,28,65);fill-rule:nonzero;"
                    />
            </g>
            <g transform="matrix(1,0,0,1,604.6328,317.4173)">
                <path
                        d="M0,-9.285C-13.573,-22.55 -23.788,-27.46 -33.354,-30.756L-13.412,-33.403C-19.808,-40.285 -27.8,-44.773 -37.039,-47.388C-42.488,-48.93 -48.37,-49.824 -54.618,-50.167C-41.735,-61.373 -39.971,-69.403 -33.089,-81.491C-50.674,-82.292 -65.962,-78.09 -79.677,-70.461C-66.147,-135.667 -38.735,-171.38 -28.971,-171.38C-19.74,-171.38 -4.098,-134.785 2.058,-93.363C2.414,-90.968 2.739,-88.558 3.029,-86.138C8.323,-41.844 0,-9.285 0,-9.285M34.823,47.686C52.613,49.212 71.441,53.429 94.234,67.921C86.83,47.818 76.838,31.995 64.438,20.16C57.23,13.282 49.213,7.747 40.411,3.509C40.411,3.509 49.705,-31.285 38.882,-75.991C37.236,-82.79 34.982,-90.274 32.286,-98.071C31.035,-101.69 29.687,-105.377 28.26,-109.095C28.098,-109.517 27.936,-109.939 27.771,-110.362C12.02,-150.952 -13.022,-194.735 -26.766,-194.109C-37.925,-193.6 -57.649,-169.155 -76.982,-138.45C-77.734,-137.256 -78.485,-136.056 -79.235,-134.844C-94.885,-109.559 -110.767,-80.35 -116.647,-58.579C-119.097,-90.277 -107.079,-113.145 -85.677,-130.285C-85.677,-130.285 -122.655,-127.991 -159.906,-108.856C-161.123,-108.231 -162.339,-107.586 -163.556,-106.925C-169.124,-103.896 -174.67,-100.481 -180.074,-96.628C-185.032,-93.094 -189.868,-89.192 -194.489,-84.886C-197.975,-81.638 -201.335,-78.156 -204.535,-74.431C-205.68,-73.098 -206.811,-71.741 -207.912,-70.344C-251.324,-15.285 -248.089,29.715 -245.736,60.303C-243.383,90.891 -245.971,121.083 -264.089,149.164C-270.905,159.729 -276.934,167.516 -281.038,173.719C-281.032,173.721 -268.646,177.803 -261.589,179.803C-258.778,180.599 -256.522,181.638 -255.087,183.21C-254.774,183.551 -254.5,183.918 -254.269,184.314C-232.657,169.905 -219.882,153.987 -207.118,138.068L-206.895,137.679C-205.677,135.539 -199.758,124.839 -198.177,116.303C-196.412,106.774 -198.341,86.833 -188.412,74.421C-178.765,62.362 -169.236,58.597 -132.295,57.539L-142.173,72.014C-137.375,71.038 -131.961,70.007 -125.795,68.862C-125.795,68.862 -133.359,73.731 -139.088,78.899C-125.659,86.193 -79.039,113.86 -62.928,154.294C-29.538,159.079 -16.706,185.45 -16.706,185.45C-18.07,158.481 -27.208,136.215 -54,124.627C-16.622,124.416 10.1,139.697 30.474,164.209C33.018,167.269 35.469,170.466 37.823,173.803C38.266,164.732 37.805,155.71 35.979,146.761C33.891,136.535 30.007,126.406 23.637,116.411C17.959,107.505 10.313,98.704 0.176,90.039C35.086,92.673 61.151,112.282 80,145.744C79.323,96.712 60.402,68.414 34.823,47.686"
                        style="fill:rgb(251,246,252);fill-rule:nonzero;"
                    />
            </g>
            <g
                    transform="matrix(178.588226,-116.117645,-116.117645,-178.588226,343.470344,538.146482)"
                >
                <path
                        d="M0.835,0.244C0.779,0.234 0.747,0.209 0.703,0.201C0.659,0.193 0.617,0.224 0.567,0.219C0.518,0.213 0.485,0.21 0.485,0.21L0.424,0.187C0.333,0.157 0.242,0.127 0.12,0.126C0.12,0.113 0.111,0.1 0.089,0.086C0.061,0.068 0.036,0.064 0.022,0.063C0.051,0.013 0.091,-0.031 0.143,-0.062C0.223,-0.11 0.337,-0.109 0.467,-0.125C0.502,-0.13 0.553,-0.135 0.61,-0.148C0.61,-0.148 0.61,-0.148 0.61,-0.148L0.61,-0.148C0.61,-0.148 0.787,-0.13 0.919,-0.222C0.93,-0.229 0.941,-0.237 0.95,-0.246C0.99,-0.045 0.878,0.183 0.843,0.246C0.84,0.245 0.838,0.245 0.835,0.244Z"
                        style="fill:url(#_Linear19);fill-rule:nonzero;"
                    />
            </g>
            <g
                    transform="matrix(0,-64.119377,-64.119377,0,592.041089,308.514709)"
                >
                <path
                        d="M0.6,0.381C0.559,0.237 0.489,0.113 0.382,0.013L0.341,0.324C0.289,0.175 0.213,0.015 0.006,-0.196C0.006,-0.196 0.514,-0.326 1.205,-0.244C1.242,-0.239 1.28,-0.234 1.317,-0.228C1.186,-0.158 0.862,0.038 0.6,0.381Z"
                        style="fill:url(#_Linear20);fill-rule:nonzero;"
                    />
            </g>
            <g
                    transform="matrix(6.352941,-104.705887,-104.705887,-6.352941,563.69865,270.514747)"
                >
                <path
                        d="M0.202,0.382C0.282,0.256 0.331,0.113 0.334,-0.055C0.215,0.004 0.137,0.016 0.023,0.132C0.024,0.072 0.018,0.016 0.007,-0.037C0.179,-0.236 0.384,-0.344 0.467,-0.382C0.858,-0.3 1.197,-0.13 1.191,-0.042C1.186,0.051 0.83,0.291 0.202,0.382Z"
                        style="fill:url(#_Linear21);fill-rule:nonzero;"
                    />
            </g>
            <g
                    transform="matrix(73.176514,0,0,-73.176514,405.661743,415.367324)"
                >
                <path
                        d="M0.776,0.354C0.478,0.294 0.356,0.249 0.262,0.15C0.177,0.06 0.155,-0.039 0.107,-0.158C0.058,-0.278 -0,-0.398 -0,-0.398C-0,-0.398 0.076,-0.336 0.188,-0.244C0.3,-0.152 0.453,-0.16 0.547,-0.072C0.641,0.016 0.682,0.129 0.8,0.243C0.806,0.249 0.812,0.255 0.818,0.26C0.897,0.331 1,0.398 1,0.398C0.916,0.382 0.842,0.368 0.776,0.354ZM0.64,0.207C0.64,0.207 0.634,0.121 0.621,0.059C0.608,-0.003 0.543,-0.079 0.471,-0.108C0.434,-0.123 0.39,-0.122 0.346,-0.12C0.307,-0.119 0.268,-0.118 0.232,-0.128C0.291,0.084 0.429,0.193 0.64,0.207Z"
                        style="fill:url(#_Linear22);fill-rule:nonzero;"
                    />
            </g>
            <g
                    transform="matrix(0.432628,0.901572,0.901572,-0.432628,420.309863,404.48287)"
                >
                <path
                        d="M19.264,-6.701C20.314,-0.843 25.166,4.169 25.509,9.779C25.851,15.389 22.944,22.068 19.264,24.911C15.584,27.754 10.09,30.879 10.09,30.879C4.299,16.483 7.14,3.91 19.264,-6.701"
                        style="fill:rgb(39,42,88);fill-rule:nonzero;"
                    />
            </g>
            <g
                    transform="matrix(285.178467,44.235603,44.235603,-285.178467,429.664293,712.221037)"
                >
                <path
                        d="M0.01,0.009C0.01,0.009 0.022,-0.01 0.046,-0.036C0.046,-0.036 0.046,-0.036 0.046,-0.036C0.053,-0.045 0.062,-0.054 0.072,-0.064C0.074,-0.066 0.086,-0.077 0.088,-0.079C0.09,-0.081 0.097,-0.088 0.099,-0.089C0.103,-0.093 0.107,-0.096 0.112,-0.1C0.118,-0.105 0.125,-0.11 0.132,-0.115C0.134,-0.117 0.143,-0.123 0.145,-0.125C0.145,-0.125 0.145,-0.125 0.146,-0.125C0.151,-0.129 0.155,-0.132 0.161,-0.135C0.173,-0.144 0.187,-0.152 0.201,-0.159C0.207,-0.162 0.212,-0.165 0.218,-0.168C0.218,-0.168 0.219,-0.168 0.219,-0.168C0.222,-0.169 0.228,-0.172 0.228,-0.172C0.231,-0.174 0.243,-0.179 0.246,-0.18C0.249,-0.181 0.263,-0.186 0.266,-0.188C0.274,-0.191 0.283,-0.193 0.291,-0.196C0.294,-0.197 0.304,-0.2 0.307,-0.2C0.31,-0.201 0.32,-0.203 0.323,-0.204C0.323,-0.204 0.323,-0.204 0.323,-0.204C0.326,-0.205 0.337,-0.207 0.34,-0.208C0.342,-0.208 0.345,-0.208 0.347,-0.209C0.353,-0.21 0.359,-0.211 0.365,-0.211C0.368,-0.212 0.38,-0.213 0.382,-0.213C0.388,-0.214 0.393,-0.214 0.399,-0.215C0.401,-0.215 0.416,-0.215 0.418,-0.215C0.422,-0.215 0.436,-0.215 0.438,-0.215C0.442,-0.215 0.445,-0.215 0.448,-0.215C0.746,-0.203 0.915,-0.019 0.918,-0.016C0.918,-0.016 0.918,-0.016 0.918,-0.016C0.918,-0.016 0.978,0.125 0.979,0.215C0.978,0.213 0.97,0.204 0.968,0.202C0.964,0.197 0.96,0.192 0.955,0.187C0.953,0.185 0.942,0.173 0.94,0.171C0.937,0.167 0.933,0.164 0.929,0.16C0.698,-0.071 0.552,-0.098 0.455,-0.113C0.453,-0.113 0.439,-0.115 0.438,-0.115C0.436,-0.115 0.418,-0.116 0.417,-0.116C0.416,-0.116 0.406,-0.116 0.404,-0.116C0.395,-0.115 0.386,-0.115 0.376,-0.113C0.374,-0.113 0.372,-0.113 0.37,-0.113C0.37,-0.113 0.37,-0.113 0.37,-0.113C0.368,-0.112 0.365,-0.112 0.363,-0.112C0.363,-0.112 0.363,-0.112 0.363,-0.112C0.36,-0.111 0.358,-0.111 0.356,-0.111C0.35,-0.11 0.344,-0.108 0.339,-0.107C0.337,-0.107 0.335,-0.106 0.333,-0.106C0.328,-0.105 0.322,-0.103 0.317,-0.102C0.314,-0.101 0.304,-0.098 0.301,-0.097C0.299,-0.096 0.288,-0.092 0.286,-0.091C0.28,-0.089 0.275,-0.087 0.27,-0.084C0.27,-0.084 0.27,-0.084 0.27,-0.084C0.267,-0.083 0.257,-0.078 0.254,-0.077C0.252,-0.076 0.249,-0.074 0.247,-0.073C0.247,-0.073 0.246,-0.073 0.246,-0.072C0.243,-0.071 0.23,-0.063 0.229,-0.063C0.227,-0.062 0.223,-0.059 0.223,-0.059C0.219,-0.056 0.215,-0.053 0.211,-0.051C0.209,-0.049 0.201,-0.043 0.199,-0.041C0.197,-0.04 0.188,-0.033 0.185,-0.03C0.184,-0.029 0.183,-0.028 0.181,-0.027C0.175,-0.021 0.168,-0.015 0.162,-0.008C0.16,-0.006 0.151,0.004 0.15,0.005C0.146,0.01 0.141,0.016 0.136,0.022C0.135,0.024 0.127,0.036 0.125,0.037C0.122,0.042 0.119,0.047 0.116,0.052C0.115,0.053 0.111,0.06 0.11,0.062C0.11,0.062 0.11,0.062 0.11,0.062C0.109,0.064 0.108,0.067 0.106,0.069C0.105,0.072 0.103,0.076 0.101,0.08C0.099,0.082 0.093,0.097 0.092,0.097C0.092,0.099 0.089,0.106 0.088,0.107C0.087,0.11 0.086,0.113 0.085,0.115C0.072,0.148 0.064,0.177 0.059,0.204C0.012,0.103 0.01,0.009 0.01,0.009Z"
                        style="fill:url(#_Linear23);fill-rule:nonzero;"
                    />
            </g>
            <g
                    transform="matrix(713.146606,0,0,-713.146606,122.808823,712.517124)"
                >
                <path
                        d="M0.942,0.105C0.943,0.142 0.939,0.176 0.927,0.206C0.927,0.206 0.923,0.105 0.835,0.026C0.829,-0.01 0.797,-0.063 0.797,-0.063C0.797,-0.063 0.711,-0.211 0.521,-0.225C0.38,-0.235 0.298,-0.176 0.263,-0.156C0.227,-0.135 0.207,-0.122 0.207,-0.122C0.246,-0.113 0.273,-0.11 0.301,-0.122C0.231,-0.065 0.146,-0.069 0.074,0.009C-0.001,0.091 -0.008,0.18 -0.009,0.191C-0.013,0.158 -0.013,0.121 -0.007,0.08C0.02,-0.104 0.187,-0.224 0.311,-0.267C0.367,-0.283 0.426,-0.291 0.487,-0.291C0.522,-0.291 0.557,-0.289 0.59,-0.283C0.89,-0.215 1.039,0.062 0.992,0.291C0.988,0.217 0.969,0.157 0.942,0.105Z"
                        style="fill:url(#_Linear24);fill-rule:nonzero;"
                    />
            </g>
            <g
                    transform="matrix(491.995941,328.938477,328.938477,-491.995941,113.554005,570.959943)"
                >
                <path
                        d="M0.009,-0.005C0.017,-0.016 0.084,-0.1 0.215,-0.131C0.339,-0.161 0.421,-0.1 0.529,-0.111C0.493,-0.117 0.468,-0.138 0.435,-0.173C0.435,-0.173 0.464,-0.173 0.513,-0.17C0.563,-0.167 0.684,-0.172 0.819,-0.066C0.822,-0.064 0.831,-0.057 0.832,-0.056C0.832,-0.056 0.832,-0.056 0.832,-0.056C0.834,-0.054 0.847,-0.042 0.848,-0.042C0.852,-0.038 0.863,-0.027 0.864,-0.026C0.865,-0.025 0.873,-0.016 0.875,-0.015C0.877,-0.012 0.884,-0.005 0.885,-0.003C0.89,0.002 0.894,0.008 0.899,0.014C0.899,0.015 0.907,0.025 0.909,0.029C0.91,0.03 0.911,0.031 0.912,0.033C0.917,0.04 0.922,0.047 0.926,0.055C0.927,0.057 0.933,0.068 0.934,0.069C0.935,0.071 0.939,0.079 0.94,0.08C0.946,0.092 0.951,0.105 0.956,0.117C0.956,0.118 0.961,0.13 0.963,0.135C0.963,0.137 0.968,0.152 0.968,0.153C0.969,0.156 0.972,0.165 0.972,0.167C0.973,0.169 0.973,0.171 0.974,0.173C0.94,0.113 0.909,0.078 0.909,0.078C0.909,0.078 0.845,-0.035 0.697,-0.084C0.575,-0.124 0.495,-0.076 0.432,-0.066C0.336,-0.051 0.205,-0.087 0.095,-0.013C0.026,0.034 -0.012,0.094 -0.032,0.137C-0.027,0.094 -0.015,0.045 0.009,-0.005Z"
                        style="fill:url(#_Linear25);fill-rule:nonzero;"
                    />
            </g>
            <g
                    transform="matrix(428.470612,368.470612,368.470612,-428.470612,124.298901,498.951595)"
                >
                <path
                        d="M0.018,0.029C0.044,-0.013 0.092,-0.071 0.169,-0.11C0.293,-0.174 0.424,-0.12 0.526,-0.123C0.593,-0.126 0.682,-0.165 0.804,-0.108C0.952,-0.038 1.004,0.087 1.004,0.087C0.796,-0.131 0.584,-0.038 0.509,-0.008C0.448,0.016 0.399,0.029 0.399,0.029C0.399,0.029 0.46,0.076 0.553,0.076C0.585,0.077 0.619,0.073 0.644,0.07C0.668,0.066 0.684,0.063 0.685,0.063C0.668,0.068 0.658,0.073 0.658,0.073C0.549,0.133 0.479,0.132 0.437,0.131C0.342,0.128 0.301,0.096 0.219,0.091C0.183,0.09 0.147,0.094 0.111,0.109C0.041,0.14 0.014,0.206 0.014,0.206C0.014,0.206 -0.005,0.13 0.018,0.029Z"
                        style="fill:url(#_Linear26);fill-rule:nonzero;"
                    />
            </g>
            <g
                    transform="matrix(337.880737,175.057999,175.057999,-337.880737,278.320564,687.667648)"
                >
                <path
                        d="M0.145,0.069C0.244,-0 0.519,-0.208 0.893,0.037C0.893,0.037 0.947,0.085 1.009,0.173C1.01,0.174 1.012,0.18 1.013,0.181C1.018,0.196 1.022,0.21 1.026,0.223C1.026,0.224 1.026,0.225 1.027,0.226C1.03,0.24 1.033,0.252 1.036,0.263C1.036,0.265 1.039,0.277 1.039,0.278C1.039,0.281 1.041,0.29 1.041,0.292C1.041,0.292 1.041,0.292 1.041,0.292C1.042,0.296 1.045,0.318 1.045,0.318C1.045,0.32 1.046,0.327 1.046,0.328C1.047,0.333 1.047,0.336 1.047,0.336C1.045,0.333 0.968,0.16 0.757,0.079C0.755,0.078 0.746,0.075 0.744,0.075C0.741,0.074 0.733,0.071 0.731,0.071C0.729,0.07 0.723,0.068 0.722,0.068C0.717,0.067 0.713,0.066 0.709,0.065C0.707,0.064 0.699,0.062 0.696,0.062C0.692,0.061 0.687,0.06 0.683,0.059C0.681,0.059 0.666,0.057 0.664,0.057C0.664,0.057 0.664,0.057 0.664,0.057C0.662,0.057 0.654,0.056 0.652,0.056C0.65,0.056 0.641,0.055 0.639,0.055C0.633,0.055 0.626,0.055 0.619,0.055C0.617,0.055 0.606,0.055 0.603,0.056C0.601,0.056 0.588,0.057 0.588,0.057C0.585,0.057 0.583,0.057 0.581,0.058C0.58,0.058 0.58,0.058 0.58,0.058C0.575,0.058 0.571,0.059 0.566,0.06C0.554,0.062 0.542,0.064 0.531,0.067C0.526,0.068 0.522,0.07 0.518,0.071C0.518,0.071 0.517,0.071 0.517,0.071C0.515,0.072 0.507,0.074 0.505,0.075C0.499,0.077 0.493,0.079 0.487,0.081C0.483,0.083 0.472,0.087 0.47,0.088C0.468,0.089 0.452,0.096 0.45,0.097C0.441,0.102 0.432,0.106 0.425,0.111C0.425,0.111 0.424,0.111 0.424,0.111C0.423,0.111 0.4,0.122 0.367,0.135C0.332,0.148 0.285,0.165 0.237,0.176C0.103,0.207 -0.001,0.16 -0.001,0.16C-0.001,0.16 0.066,0.123 0.145,0.069Z"
                        style="fill:url(#_Linear27);fill-rule:nonzero;"
                    />
            </g>
        </g></g><g id="Layer-1" serif:id="Layer 1">
            <g
                transform="matrix(12.514282,0,0,-12.514282,332.058411,900.777198)"
            >
                <path
                    d="M1,-0.153C0.999,-0.153 0.999,-0.152 0.998,-0.152C0.999,-0.153 1,-0.153 1,-0.153C0.664,-0.056 0.331,0.046 0,0.153C0.525,-0.029 0.677,-0.064 1,-0.153ZM0.959,-0.139L0.959,-0.139L0.959,-0.139ZM0.959,-0.139L0.959,-0.139L0.959,-0.139ZM0.959,-0.139C0.959,-0.139 0.959,-0.139 0.959,-0.139C0.959,-0.139 0.959,-0.139 0.959,-0.139ZM0.959,-0.139L0.959,-0.139L0.959,-0.139ZM0.959,-0.139C0.959,-0.139 0.959,-0.139 0.959,-0.139C0.959,-0.139 0.959,-0.139 0.959,-0.139ZM0.959,-0.139C0.959,-0.139 0.959,-0.139 0.959,-0.139C0.959,-0.139 0.959,-0.139 0.959,-0.139ZM0.96,-0.14C0.96,-0.14 0.96,-0.139 0.959,-0.139C0.96,-0.139 0.96,-0.14 0.96,-0.14ZM0.961,-0.14C0.961,-0.14 0.96,-0.14 0.96,-0.14C0.96,-0.14 0.961,-0.14 0.961,-0.14ZM0.965,-0.141C0.963,-0.14 0.962,-0.14 0.961,-0.14C0.962,-0.14 0.963,-0.141 0.965,-0.141ZM0.965,-0.141C0.965,-0.141 0.965,-0.141 0.965,-0.141C0.965,-0.141 0.965,-0.141 0.965,-0.141ZM0.979,-0.146C0.973,-0.144 0.969,-0.142 0.965,-0.141C0.969,-0.143 0.974,-0.144 0.979,-0.146ZM0.98,-0.146C0.98,-0.146 0.979,-0.146 0.979,-0.146C0.979,-0.146 0.979,-0.146 0.98,-0.146ZM0.981,-0.147C0.981,-0.146 0.98,-0.146 0.98,-0.146C0.98,-0.146 0.981,-0.146 0.981,-0.147ZM0.982,-0.147C0.982,-0.147 0.981,-0.147 0.981,-0.147C0.981,-0.147 0.982,-0.147 0.982,-0.147ZM0.987,-0.148C0.985,-0.148 0.983,-0.147 0.982,-0.147C0.983,-0.147 0.985,-0.148 0.987,-0.148ZM0.987,-0.148C0.987,-0.148 0.987,-0.148 0.987,-0.148C0.987,-0.148 0.987,-0.148 0.987,-0.148ZM0.99,-0.15C0.989,-0.149 0.988,-0.149 0.987,-0.148C0.988,-0.149 0.989,-0.149 0.99,-0.15ZM0.991,-0.15C0.991,-0.15 0.991,-0.15 0.99,-0.15C0.991,-0.15 0.991,-0.15 0.991,-0.15ZM0.993,-0.15C0.992,-0.15 0.991,-0.15 0.991,-0.15C0.991,-0.15 0.992,-0.15 0.993,-0.15ZM0.994,-0.151C0.994,-0.151 0.993,-0.151 0.993,-0.15C0.993,-0.151 0.994,-0.151 0.994,-0.151ZM0.996,-0.151C0.995,-0.151 0.995,-0.151 0.994,-0.151C0.995,-0.151 0.995,-0.151 0.996,-0.151ZM0.996,-0.152C0.996,-0.151 0.996,-0.151 0.996,-0.151C0.996,-0.151 0.996,-0.151 0.996,-0.152ZM0.998,-0.152C0.998,-0.152 0.997,-0.152 0.996,-0.152C0.997,-0.152 0.998,-0.152 0.998,-0.152ZM0.998,-0.152L0.998,-0.152L0.998,-0.152L0.998,-0.152L0.998,-0.152Z"
                    style="fill:url(#_Linear1);fill-rule:nonzero;"
                />
            </g>
            <g
                transform="matrix(-91.05883,156.352936,156.352936,91.05883,603.052676,460.858298)"
            >
                <path
                    d="M0.243,0.045C0.233,-0.094 0.266,-0.21 0.318,-0.304C0.318,-0.304 0.35,-0.217 0.457,-0.172C0.596,-0.113 0.771,-0.15 0.892,-0.127C0.973,-0.111 1.019,-0.093 1.044,-0.08C0.876,-0.003 0.741,0.11 0.619,0.214C0.586,0.242 0.541,0.273 0.49,0.304C0.652,0.149 0.72,0.033 0.72,0.033C0.546,0.12 0.341,0.16 0.102,0.146L0.1,0.303L0.035,0.273C0.026,0.252 0.018,0.232 0.01,0.211C-0.036,0.007 -0,-0.154 0.056,-0.303C0.037,-0.142 0.118,-0.037 0.243,0.045Z"
                    style="fill:url(#_Linear2);fill-rule:nonzero;"
                />
            </g>
            <g
                transform="matrix(-240.231735,-71.855026,-71.855026,240.231735,818.889505,461.499433)"
            >
                <path
                    d="M1,-0.755C0.99,-0.742 0.981,-0.73 0.972,-0.717C0.701,-0.539 0.714,-0.302 0.714,-0.302L0.714,-0.302C0.653,-0.271 0.597,-0.222 0.546,-0.154C0.649,-0.183 0.726,-0.178 0.796,-0.163C0.674,-0.113 0.57,-0.027 0.511,0.16L0.495,0.213C0.495,0.213 0.582,0.203 0.678,0.214C0.661,0.246 0.649,0.28 0.64,0.315L0.63,0.366L0.74,0.34C0.771,0.511 0.833,0.647 0.924,0.755C0.924,0.755 0.831,0.727 0.695,0.64C0.649,0.594 0.599,0.539 0.558,0.49C0.31,0.37 -0,0.385 -0,0.385C0.115,0.04 0.288,-0.262 0.638,-0.43L0.569,-0.408C0.663,-0.562 0.782,-0.697 1,-0.755L1,-0.755Z"
                    style="fill:url(#_Linear3);fill-rule:nonzero;"
                />
            </g>
            <g
                transform="matrix(-26.470589,-87,-87,26.470589,429.035596,223.283929)"
            >
                <path
                    d="M1.198,-0.112C1.205,-0.086 1.018,0.032 0.653,0.126C0.288,0.221 -0.037,0.228 -0.037,0.228L-0.037,0.228C-0.006,0.166 0.019,0.103 0.041,0.039L0.041,0.039C0.041,0.039 0.089,0.06 0.224,0.047C0.359,0.034 0.394,0.004 0.398,-0.006C0.402,-0.016 0.293,-0.131 0.096,-0.168C0.099,-0.183 0.102,-0.197 0.105,-0.212C0.152,-0.217 0.228,-0.222 0.32,-0.225C0.409,-0.227 0.515,-0.227 0.627,-0.22C0.946,-0.201 1.19,-0.139 1.198,-0.113C1.198,-0.113 1.198,-0.112 1.198,-0.112Z"
                    style="fill:url(#_Linear4);fill-rule:nonzero;"
                />
            </g>
            <g
                transform="matrix(54.352943,37.058823,37.058823,-54.352943,625.354134,436.958044)"
            >
                <path
                    d="M0.425,-0.211C0.761,-0.061 1.088,0.004 1.088,0.004L0.969,0.179C0.617,0.197 0.301,0.154 0.01,0.064L0.01,0.064C0.175,-0.007 0.311,-0.101 0.425,-0.211Z"
                    style="fill:url(#_Linear5);fill-rule:nonzero;"
                />
            </g>
            <g
                transform="matrix(141.176483,-496.941162,-496.941162,-141.176483,597.079909,768.512832)"
            >
                <path
                    d="M1.064,0.231C1.063,0.231 1.063,0.23 1.062,0.23L1.062,0.23C1.033,0.124 0.966,0.067 0.891,0.023L0.902,0.056C0.818,-0.113 0.67,-0.194 0.502,-0.248C0.502,-0.248 0.512,-0.098 0.455,0.023C0.432,0.044 0.405,0.068 0.383,0.091C0.369,0.106 0.356,0.12 0.348,0.133C0.315,0.179 0.279,0.229 0.229,0.269C0.215,0.281 0.2,0.291 0.183,0.301C0.167,0.311 0.15,0.318 0.133,0.323C0.119,0.318 0.103,0.312 0.086,0.302C-0.022,0.244 -0.03,0.135 -0.015,0.082C-0,0.029 0.025,-0.05 0.169,-0.163C0.318,-0.279 0.476,-0.24 0.476,-0.24C0.442,-0.268 0.398,-0.286 0.348,-0.298C0.427,-0.315 0.513,-0.317 0.614,-0.294C0.653,-0.274 0.69,-0.249 0.723,-0.22C0.707,-0.249 0.688,-0.277 0.661,-0.303C0.737,-0.286 0.804,-0.256 0.857,-0.206C0.892,-0.173 0.921,-0.131 0.941,-0.078C0.947,-0.105 0.946,-0.136 0.941,-0.17C1.029,-0.073 1.086,0.066 1.064,0.231L1.064,0.231Z"
                    style="fill:url(#_Linear6);fill-rule:nonzero;"
                />
            </g>
            <g
                transform="matrix(15.441175,-9.088235,-9.088235,-15.441175,417.109314,207.39987)"
            >
                <path
                    d="M0.626,0.854C0.571,0.847 0.383,0.712 0.159,0.061C-0.064,-0.591 -0.021,-0.855 -0.021,-0.855L-0.021,-0.855C0.348,-0.823 0.712,-0.815 1.065,-0.827C1.115,0.147 0.716,0.804 0.635,0.852C0.631,0.854 0.629,0.855 0.626,0.854Z"
                    style="fill:url(#_Linear7);fill-rule:nonzero;"
                />
            </g>
            <g
                transform="matrix(-9.882353,-95.76471,-95.76471,9.882353,679.50215,329.880667)"
            >
                <path
                    d="M0.952,0.278C0.479,0.213 0.129,0.346 0.129,0.346C0.076,0.26 0.01,0.183 -0.068,0.116L-0.068,0.116C-0.068,0.116 0.489,-0.153 1.187,0.322C1.104,0.303 1.024,0.287 0.952,0.278Z"
                    style="fill:url(#_Linear8);fill-rule:nonzero;"
                />
            </g>
            <g
                transform="matrix(83.911758,49.676468,49.676468,-83.911758,559.142748,433.583513)"
            >
                <path
                    d="M-0.031,-0.119C0.245,-0.013 0.542,0.055 0.921,-0.027C0.616,0.082 0.302,0.078 -0.024,-0.115C-0.026,-0.116 -0.029,-0.118 -0.031,-0.119Z"
                    style="fill:url(#_Linear9);fill-rule:nonzero;"
                />
            </g>
            <g
                transform="matrix(86.293184,7.844835,7.844835,-86.293184,600.051097,423.605185)"
            >
                <path
                    d="M0.335,-0.088L0.335,-0.088C0.561,-0.136 0.787,-0.224 1.013,-0.366C0.762,-0.001 0.442,0.197 0.038,0.191C0.163,0.102 0.26,0.008 0.335,-0.088Z"
                    style="fill:url(#_Linear10);fill-rule:nonzero;"
                />
            </g>
            <g
                transform="matrix(338.823517,-462.352936,-462.352936,-338.823517,588.301648,930.331619)"
            >
                <path
                    d="M1.025,0.249C0.997,0.191 0.949,0.145 0.891,0.106C0.905,0.136 0.912,0.166 0.917,0.196C0.898,0.161 0.875,0.128 0.848,0.099C0.653,-0.117 0.266,-0.171 -0.024,0.079C0.192,-0.134 0.502,-0.197 0.779,-0.1C0.896,-0.048 1.006,0.073 1.025,0.249L1.025,0.249Z"
                    style="fill:url(#_Linear11);fill-rule:nonzero;"
                />
            </g>
            <g
                transform="matrix(201.177032,645.884155,645.884155,-201.177032,110.305277,182.384075)"
            >
                <path
                    d="M0.343,-0.217C0.457,-0.265 0.657,-0.302 0.857,-0.204C0.997,-0.135 1.075,-0.048 1.109,-0.002C1.112,0.003 1.116,0.009 1.12,0.014C1.038,-0.097 0.865,-0.227 0.671,-0.198C0.628,-0.191 0.591,-0.179 0.559,-0.164C0.514,-0.144 0.48,-0.117 0.453,-0.091C0.392,-0.03 0.372,0.033 0.372,0.033C0.372,0.033 0.42,-0.002 0.483,0.007C0.515,0.012 0.543,0.025 0.568,0.042C0.624,0.082 0.639,0.123 0.705,0.167C0.734,0.187 0.783,0.218 0.887,0.223C0.887,0.223 0.851,0.242 0.821,0.279C0.813,0.289 0.805,0.3 0.798,0.314C0.791,0.317 0.784,0.322 0.777,0.326C0.688,0.152 0.526,0.071 0.384,0.082C0.279,0.09 0.12,0.151 0.043,0.339C-0.015,0.015 0.228,-0.17 0.343,-0.217Z"
                    style="fill:url(#_Linear12);fill-rule:nonzero;"
                />
            </g>
            <g
                transform="matrix(-1.882353,136.470581,136.470581,1.882353,501.796261,481.899519)"
            >
                <path
                    d="M0.09,-0.235C0.09,-0.235 0.09,-0.235 0.09,-0.235C0.119,-0.191 0.188,-0.114 0.317,-0.114C0.485,-0.114 0.605,-0.276 0.605,-0.276C0.614,-0.18 0.581,-0.081 0.511,0.021C0.663,-0.054 0.822,-0.122 1.004,-0.167C1.043,-0.177 1.083,-0.185 1.124,-0.192C1.074,-0.141 1.029,-0.087 0.989,-0.032C0.952,-0.031 0.887,-0.022 0.783,0.012C0.628,0.064 0.45,0.221 0.252,0.244C0.099,0.261 0.004,0.182 0.004,0.182C0.004,0.174 0.004,0.166 0.004,0.159C0.006,0.011 0.045,-0.125 0.09,-0.235Z"
                    style="fill:url(#_Linear13);fill-rule:nonzero;"
                />
            </g>
            <g
                transform="matrix(-51.882355,-70.941177,-70.941177,51.882355,508.648095,224.475994)"
            >
                <path
                    d="M1.039,-0.081C1.127,0.091 1.059,0.216 1.059,0.216C1.059,0.216 0.906,0.292 0.782,0.394C0.692,0.428 0.621,0.46 0.575,0.48C0.501,0.01 0.274,-0.345 0.274,-0.345C0.26,-0.034 0.131,0.23 -0.177,0.421C-0.016,0.22 0.145,-0.122 0.272,-0.435C0.278,-0.45 0.284,-0.465 0.29,-0.48C0.36,-0.468 0.471,-0.449 0.6,-0.423C0.601,-0.423 0.864,-0.33 1.001,-0.143C1.015,-0.124 1.028,-0.103 1.039,-0.081Z"
                    style="fill:url(#_Linear14);fill-rule:nonzero;"
                />
            </g>
            <g
                transform="matrix(-9.411765,-136,-136,9.411765,453.752883,245.269165)"
            >
                <path
                    d="M1.114,0.271C1.09,0.349 0.857,0.403 0.633,0.415C0.409,0.427 0.044,0.392 0.044,0.392L0.044,0.391C0.07,0.366 0.093,0.34 0.115,0.313L0.115,0.313C0.115,0.313 0.328,0.357 0.579,0.35C0.83,0.343 0.97,0.294 0.969,0.276C0.968,0.258 0.819,0.181 0.614,0.12C0.542,0.099 0.473,0.083 0.415,0.072C0.518,0.059 0.628,0.069 0.628,0.069C0.628,0.069 0.708,0.025 0.719,-0.099C0.734,-0.264 0.597,-0.436 0.597,-0.437C0.69,-0.348 0.799,-0.239 0.879,-0.143C0.999,0.003 1.111,0.156 1.117,0.242C1.118,0.253 1.117,0.263 1.114,0.271Z"
                    style="fill:url(#_Linear15);fill-rule:nonzero;"
                />
            </g>
            <g transform="matrix(1,0,0,1,918.7646,445.1091)">
                <path
                    d="M0,21.472C0,-229.132 -200.859,-432.285 -448.632,-432.285C-696.405,-432.285 -897.265,-229.132 -897.265,21.472C-897.265,223.845 -768.581,395.268 -586.706,453.757C-623.178,441.127 -695.365,408.481 -768.059,331.818C-871.471,222.758 -887.706,85.582 -879.941,2.288C-872.176,-81.006 -802.059,-275.594 -581,-303.359C-686.823,-215.447 -693.94,-100.402 -678.353,-31.447C-657.042,62.828 -571.568,150.963 -441.662,173.538C-435.188,148.751 -425.53,127.207 -415,106.553C-429.055,115.954 -442.644,120.252 -455.706,118.788C-455.706,118.788 -433.376,102.757 -433.132,79.818C-432.945,62.208 -443.196,52.681 -449.26,48.589C-460.845,53.033 -470.472,57.895 -477.368,61.229C-502.426,73.347 -522.691,86.729 -542.456,87.524C-555.522,88.048 -567.771,84.767 -578.733,79.254C-584.353,76.428 -589.641,73.027 -594.515,69.229C-600.22,64.785 -601.674,60.766 -600.235,55.786C-599.412,52.936 -597.646,49.773 -595.169,46.028C-591.065,39.825 -585.037,32.037 -578.221,21.472C-560.103,-6.609 -557.515,-36.8 -559.868,-67.388C-562.221,-97.977 -565.456,-142.977 -522.044,-198.035C-520.942,-199.433 -519.812,-200.79 -518.667,-202.123L-518.669,-202.131C-518.669,-202.131 -526.956,-251.418 -527.426,-282.006C-527.897,-312.594 -522.721,-344.83 -512.368,-348.83C-502.015,-352.83 -477.367,-337.537 -453.897,-320.712C-440.018,-310.762 -424.124,-296.935 -411.234,-285.133C-402.738,-277.354 -395.555,-270.464 -391.114,-266.142C-371.781,-296.846 -352.057,-321.292 -340.897,-321.8C-327.154,-322.426 -302.112,-278.643 -286.36,-238.054L-286.359,-238.055C-201.431,-225.554 -140.073,-177.8 -104.367,-120.271C-120.384,-127.242 -135.734,-132.233 -149.779,-133.33C-126.509,-115.704 -109.757,-95.545 -98.248,-73.347L-98.244,-73.347C-23.184,-4.503 -4.585,87.52 -20.339,158.931C-7.095,115.571 0,69.391 0,21.472"
                    style="fill:rgb(36,40,75);fill-rule:nonzero;"
                />
            </g>
            <g
                transform="matrix(82.941177,-79.76471,-79.76471,-82.941177,389.239745,438.148362)"
            >
                <path
                    d="M0.448,0.128C0.311,0.11 0.203,-0.027 0.135,-0.076C0.073,-0.12 -0.028,-0.151 -0.049,-0.157C-0.051,-0.158 -0.053,-0.158 -0.053,-0.158L0.065,-0.138C0.065,-0.138 0.144,-0.109 0.219,-0.076C0.294,-0.042 0.348,-0.007 0.426,-0.003C0.513,0.001 0.589,-0.032 0.752,-0.136L0.901,-0.105C0.663,0.111 0.581,0.145 0.448,0.128Z"
                    style="fill:url(#_Linear16);fill-rule:nonzero;"
                />
            </g>
            <g transform="matrix(0.223572,0,0,-0.223572,397.514709,455.291198)">
                <path
                    d="M0.001,-0.871C0.001,-0.871 0.368,-0.241 0.999,0.873L0.001,-0.871Z"
                    style="fill:url(#_Linear17);fill-rule:nonzero;"
                />
            </g>
            <g
                transform="matrix(118.421326,0,0,-118.421326,469.505127,486.91083)"
            >
                <path
                    d="M-0,-0.057L0,-0.057C0.135,-0.006 0.301,0.039 0.482,0.035C0.647,0.03 0.824,-0.015 1,-0.135C1,-0.135 0.892,0.088 0.61,0.128C0.587,0.132 0.564,0.134 0.539,0.134C0.533,0.135 0.528,0.135 0.522,0.135C0.241,0.135 -0,-0.057 -0,-0.057Z"
                    style="fill:url(#_Linear18);fill-rule:nonzero;"
                />
            </g>
            <g transform="matrix(1,0,0,1,331.103,491.1374)">
                <path
                    d="M0,15.848C7.449,15.849 14.735,11.877 18.443,9.49C17.007,7.918 14.752,6.879 11.941,6.083C4.884,4.083 -7.502,0.001 -7.508,-0.001C-9.985,3.744 -11.75,6.908 -12.574,9.758C-12.509,9.852 -8.347,15.847 0,15.848"
                    style="fill:rgb(37,42,81);fill-rule:nonzero;"
                />
            </g>
            <g transform="matrix(1,0,0,1,350.3638,523.2594)">
                <path
                    d="M0,-21.528C-0.23,-21.924 -0.505,-22.291 -0.818,-22.632C-4.525,-20.245 -11.812,-16.273 -19.261,-16.274C-27.608,-16.275 -31.77,-22.27 -31.834,-22.364C-33.273,-17.384 -31.819,-13.366 -26.114,-8.922C-21.24,-5.124 -15.952,-1.722 -10.332,1.104C-7.874,-0.701 -3.886,-4.376 -1.025,-10.745C1.247,-15.805 1.369,-19.172 0,-21.528"
                    style="fill:rgb(20,28,65);fill-rule:nonzero;"
                />
            </g>
            <g transform="matrix(1,0,0,1,604.6328,317.4173)">
                <path
                    d="M0,-9.285C-13.573,-22.55 -23.788,-27.46 -33.354,-30.756L-13.412,-33.403C-19.808,-40.285 -27.8,-44.773 -37.039,-47.388C-42.488,-48.93 -48.37,-49.824 -54.618,-50.167C-41.735,-61.373 -39.971,-69.403 -33.089,-81.491C-50.674,-82.292 -65.962,-78.09 -79.677,-70.461C-66.147,-135.667 -38.735,-171.38 -28.971,-171.38C-19.74,-171.38 -4.098,-134.785 2.058,-93.363C2.414,-90.968 2.739,-88.558 3.029,-86.138C8.323,-41.844 0,-9.285 0,-9.285M34.823,47.686C52.613,49.212 71.441,53.429 94.234,67.921C86.83,47.818 76.838,31.995 64.438,20.16C57.23,13.282 49.213,7.747 40.411,3.509C40.411,3.509 49.705,-31.285 38.882,-75.991C37.236,-82.79 34.982,-90.274 32.286,-98.071C31.035,-101.69 29.687,-105.377 28.26,-109.095C28.098,-109.517 27.936,-109.939 27.771,-110.362C12.02,-150.952 -13.022,-194.735 -26.766,-194.109C-37.925,-193.6 -57.649,-169.155 -76.982,-138.45C-77.734,-137.256 -78.485,-136.056 -79.235,-134.844C-94.885,-109.559 -110.767,-80.35 -116.647,-58.579C-119.097,-90.277 -107.079,-113.145 -85.677,-130.285C-85.677,-130.285 -122.655,-127.991 -159.906,-108.856C-161.123,-108.231 -162.339,-107.586 -163.556,-106.925C-169.124,-103.896 -174.67,-100.481 -180.074,-96.628C-185.032,-93.094 -189.868,-89.192 -194.489,-84.886C-197.975,-81.638 -201.335,-78.156 -204.535,-74.431C-205.68,-73.098 -206.811,-71.741 -207.912,-70.344C-251.324,-15.285 -248.089,29.715 -245.736,60.303C-243.383,90.891 -245.971,121.083 -264.089,149.164C-270.905,159.729 -276.934,167.516 -281.038,173.719C-281.032,173.721 -268.646,177.803 -261.589,179.803C-258.778,180.599 -256.522,181.638 -255.087,183.21C-254.774,183.551 -254.5,183.918 -254.269,184.314C-232.657,169.905 -219.882,153.987 -207.118,138.068L-206.895,137.679C-205.677,135.539 -199.758,124.839 -198.177,116.303C-196.412,106.774 -198.341,86.833 -188.412,74.421C-178.765,62.362 -169.236,58.597 -132.295,57.539L-142.173,72.014C-137.375,71.038 -131.961,70.007 -125.795,68.862C-125.795,68.862 -133.359,73.731 -139.088,78.899C-125.659,86.193 -79.039,113.86 -62.928,154.294C-29.538,159.079 -16.706,185.45 -16.706,185.45C-18.07,158.481 -27.208,136.215 -54,124.627C-16.622,124.416 10.1,139.697 30.474,164.209C33.018,167.269 35.469,170.466 37.823,173.803C38.266,164.732 37.805,155.71 35.979,146.761C33.891,136.535 30.007,126.406 23.637,116.411C17.959,107.505 10.313,98.704 0.176,90.039C35.086,92.673 61.151,112.282 80,145.744C79.323,96.712 60.402,68.414 34.823,47.686"
                    style="fill:rgb(251,246,252);fill-rule:nonzero;"
                />
            </g>
            <g
                transform="matrix(178.588226,-116.117645,-116.117645,-178.588226,343.470344,538.146482)"
            >
                <path
                    d="M0.835,0.244C0.779,0.234 0.747,0.209 0.703,0.201C0.659,0.193 0.617,0.224 0.567,0.219C0.518,0.213 0.485,0.21 0.485,0.21L0.424,0.187C0.333,0.157 0.242,0.127 0.12,0.126C0.12,0.113 0.111,0.1 0.089,0.086C0.061,0.068 0.036,0.064 0.022,0.063C0.051,0.013 0.091,-0.031 0.143,-0.062C0.223,-0.11 0.337,-0.109 0.467,-0.125C0.502,-0.13 0.553,-0.135 0.61,-0.148C0.61,-0.148 0.61,-0.148 0.61,-0.148L0.61,-0.148C0.61,-0.148 0.787,-0.13 0.919,-0.222C0.93,-0.229 0.941,-0.237 0.95,-0.246C0.99,-0.045 0.878,0.183 0.843,0.246C0.84,0.245 0.838,0.245 0.835,0.244Z"
                    style="fill:url(#_Linear19);fill-rule:nonzero;"
                />
            </g>
            <g
                transform="matrix(0,-64.119377,-64.119377,0,592.041089,308.514709)"
            >
                <path
                    d="M0.6,0.381C0.559,0.237 0.489,0.113 0.382,0.013L0.341,0.324C0.289,0.175 0.213,0.015 0.006,-0.196C0.006,-0.196 0.514,-0.326 1.205,-0.244C1.242,-0.239 1.28,-0.234 1.317,-0.228C1.186,-0.158 0.862,0.038 0.6,0.381Z"
                    style="fill:url(#_Linear20);fill-rule:nonzero;"
                />
            </g>
            <g
                transform="matrix(6.352941,-104.705887,-104.705887,-6.352941,563.69865,270.514747)"
            >
                <path
                    d="M0.202,0.382C0.282,0.256 0.331,0.113 0.334,-0.055C0.215,0.004 0.137,0.016 0.023,0.132C0.024,0.072 0.018,0.016 0.007,-0.037C0.179,-0.236 0.384,-0.344 0.467,-0.382C0.858,-0.3 1.197,-0.13 1.191,-0.042C1.186,0.051 0.83,0.291 0.202,0.382Z"
                    style="fill:url(#_Linear21);fill-rule:nonzero;"
                />
            </g>
            <g
                transform="matrix(73.176514,0,0,-73.176514,405.661743,415.367324)"
            >
                <path
                    d="M0.776,0.354C0.478,0.294 0.356,0.249 0.262,0.15C0.177,0.06 0.155,-0.039 0.107,-0.158C0.058,-0.278 -0,-0.398 -0,-0.398C-0,-0.398 0.076,-0.336 0.188,-0.244C0.3,-0.152 0.453,-0.16 0.547,-0.072C0.641,0.016 0.682,0.129 0.8,0.243C0.806,0.249 0.812,0.255 0.818,0.26C0.897,0.331 1,0.398 1,0.398C0.916,0.382 0.842,0.368 0.776,0.354ZM0.64,0.207C0.64,0.207 0.634,0.121 0.621,0.059C0.608,-0.003 0.543,-0.079 0.471,-0.108C0.434,-0.123 0.39,-0.122 0.346,-0.12C0.307,-0.119 0.268,-0.118 0.232,-0.128C0.291,0.084 0.429,0.193 0.64,0.207Z"
                    style="fill:url(#_Linear22);fill-rule:nonzero;"
                />
            </g>
            <g
                transform="matrix(0.432628,0.901572,0.901572,-0.432628,420.309863,404.48287)"
            >
                <path
                    d="M19.264,-6.701C20.314,-0.843 25.166,4.169 25.509,9.779C25.851,15.389 22.944,22.068 19.264,24.911C15.584,27.754 10.09,30.879 10.09,30.879C4.299,16.483 7.14,3.91 19.264,-6.701"
                    style="fill:rgb(39,42,88);fill-rule:nonzero;"
                />
            </g>
            <g
                transform="matrix(285.178467,44.235603,44.235603,-285.178467,429.664293,712.221037)"
            >
                <path
                    d="M0.01,0.009C0.01,0.009 0.022,-0.01 0.046,-0.036C0.046,-0.036 0.046,-0.036 0.046,-0.036C0.053,-0.045 0.062,-0.054 0.072,-0.064C0.074,-0.066 0.086,-0.077 0.088,-0.079C0.09,-0.081 0.097,-0.088 0.099,-0.089C0.103,-0.093 0.107,-0.096 0.112,-0.1C0.118,-0.105 0.125,-0.11 0.132,-0.115C0.134,-0.117 0.143,-0.123 0.145,-0.125C0.145,-0.125 0.145,-0.125 0.146,-0.125C0.151,-0.129 0.155,-0.132 0.161,-0.135C0.173,-0.144 0.187,-0.152 0.201,-0.159C0.207,-0.162 0.212,-0.165 0.218,-0.168C0.218,-0.168 0.219,-0.168 0.219,-0.168C0.222,-0.169 0.228,-0.172 0.228,-0.172C0.231,-0.174 0.243,-0.179 0.246,-0.18C0.249,-0.181 0.263,-0.186 0.266,-0.188C0.274,-0.191 0.283,-0.193 0.291,-0.196C0.294,-0.197 0.304,-0.2 0.307,-0.2C0.31,-0.201 0.32,-0.203 0.323,-0.204C0.323,-0.204 0.323,-0.204 0.323,-0.204C0.326,-0.205 0.337,-0.207 0.34,-0.208C0.342,-0.208 0.345,-0.208 0.347,-0.209C0.353,-0.21 0.359,-0.211 0.365,-0.211C0.368,-0.212 0.38,-0.213 0.382,-0.213C0.388,-0.214 0.393,-0.214 0.399,-0.215C0.401,-0.215 0.416,-0.215 0.418,-0.215C0.422,-0.215 0.436,-0.215 0.438,-0.215C0.442,-0.215 0.445,-0.215 0.448,-0.215C0.746,-0.203 0.915,-0.019 0.918,-0.016C0.918,-0.016 0.918,-0.016 0.918,-0.016C0.918,-0.016 0.978,0.125 0.979,0.215C0.978,0.213 0.97,0.204 0.968,0.202C0.964,0.197 0.96,0.192 0.955,0.187C0.953,0.185 0.942,0.173 0.94,0.171C0.937,0.167 0.933,0.164 0.929,0.16C0.698,-0.071 0.552,-0.098 0.455,-0.113C0.453,-0.113 0.439,-0.115 0.438,-0.115C0.436,-0.115 0.418,-0.116 0.417,-0.116C0.416,-0.116 0.406,-0.116 0.404,-0.116C0.395,-0.115 0.386,-0.115 0.376,-0.113C0.374,-0.113 0.372,-0.113 0.37,-0.113C0.37,-0.113 0.37,-0.113 0.37,-0.113C0.368,-0.112 0.365,-0.112 0.363,-0.112C0.363,-0.112 0.363,-0.112 0.363,-0.112C0.36,-0.111 0.358,-0.111 0.356,-0.111C0.35,-0.11 0.344,-0.108 0.339,-0.107C0.337,-0.107 0.335,-0.106 0.333,-0.106C0.328,-0.105 0.322,-0.103 0.317,-0.102C0.314,-0.101 0.304,-0.098 0.301,-0.097C0.299,-0.096 0.288,-0.092 0.286,-0.091C0.28,-0.089 0.275,-0.087 0.27,-0.084C0.27,-0.084 0.27,-0.084 0.27,-0.084C0.267,-0.083 0.257,-0.078 0.254,-0.077C0.252,-0.076 0.249,-0.074 0.247,-0.073C0.247,-0.073 0.246,-0.073 0.246,-0.072C0.243,-0.071 0.23,-0.063 0.229,-0.063C0.227,-0.062 0.223,-0.059 0.223,-0.059C0.219,-0.056 0.215,-0.053 0.211,-0.051C0.209,-0.049 0.201,-0.043 0.199,-0.041C0.197,-0.04 0.188,-0.033 0.185,-0.03C0.184,-0.029 0.183,-0.028 0.181,-0.027C0.175,-0.021 0.168,-0.015 0.162,-0.008C0.16,-0.006 0.151,0.004 0.15,0.005C0.146,0.01 0.141,0.016 0.136,0.022C0.135,0.024 0.127,0.036 0.125,0.037C0.122,0.042 0.119,0.047 0.116,0.052C0.115,0.053 0.111,0.06 0.11,0.062C0.11,0.062 0.11,0.062 0.11,0.062C0.109,0.064 0.108,0.067 0.106,0.069C0.105,0.072 0.103,0.076 0.101,0.08C0.099,0.082 0.093,0.097 0.092,0.097C0.092,0.099 0.089,0.106 0.088,0.107C0.087,0.11 0.086,0.113 0.085,0.115C0.072,0.148 0.064,0.177 0.059,0.204C0.012,0.103 0.01,0.009 0.01,0.009Z"
                    style="fill:url(#_Linear23);fill-rule:nonzero;"
                />
            </g>
            <g
                transform="matrix(713.146606,0,0,-713.146606,122.808823,712.517124)"
            >
                <path
                    d="M0.942,0.105C0.943,0.142 0.939,0.176 0.927,0.206C0.927,0.206 0.923,0.105 0.835,0.026C0.829,-0.01 0.797,-0.063 0.797,-0.063C0.797,-0.063 0.711,-0.211 0.521,-0.225C0.38,-0.235 0.298,-0.176 0.263,-0.156C0.227,-0.135 0.207,-0.122 0.207,-0.122C0.246,-0.113 0.273,-0.11 0.301,-0.122C0.231,-0.065 0.146,-0.069 0.074,0.009C-0.001,0.091 -0.008,0.18 -0.009,0.191C-0.013,0.158 -0.013,0.121 -0.007,0.08C0.02,-0.104 0.187,-0.224 0.311,-0.267C0.367,-0.283 0.426,-0.291 0.487,-0.291C0.522,-0.291 0.557,-0.289 0.59,-0.283C0.89,-0.215 1.039,0.062 0.992,0.291C0.988,0.217 0.969,0.157 0.942,0.105Z"
                    style="fill:url(#_Linear24);fill-rule:nonzero;"
                />
            </g>
            <g
                transform="matrix(491.995941,328.938477,328.938477,-491.995941,113.554005,570.959943)"
            >
                <path
                    d="M0.009,-0.005C0.017,-0.016 0.084,-0.1 0.215,-0.131C0.339,-0.161 0.421,-0.1 0.529,-0.111C0.493,-0.117 0.468,-0.138 0.435,-0.173C0.435,-0.173 0.464,-0.173 0.513,-0.17C0.563,-0.167 0.684,-0.172 0.819,-0.066C0.822,-0.064 0.831,-0.057 0.832,-0.056C0.832,-0.056 0.832,-0.056 0.832,-0.056C0.834,-0.054 0.847,-0.042 0.848,-0.042C0.852,-0.038 0.863,-0.027 0.864,-0.026C0.865,-0.025 0.873,-0.016 0.875,-0.015C0.877,-0.012 0.884,-0.005 0.885,-0.003C0.89,0.002 0.894,0.008 0.899,0.014C0.899,0.015 0.907,0.025 0.909,0.029C0.91,0.03 0.911,0.031 0.912,0.033C0.917,0.04 0.922,0.047 0.926,0.055C0.927,0.057 0.933,0.068 0.934,0.069C0.935,0.071 0.939,0.079 0.94,0.08C0.946,0.092 0.951,0.105 0.956,0.117C0.956,0.118 0.961,0.13 0.963,0.135C0.963,0.137 0.968,0.152 0.968,0.153C0.969,0.156 0.972,0.165 0.972,0.167C0.973,0.169 0.973,0.171 0.974,0.173C0.94,0.113 0.909,0.078 0.909,0.078C0.909,0.078 0.845,-0.035 0.697,-0.084C0.575,-0.124 0.495,-0.076 0.432,-0.066C0.336,-0.051 0.205,-0.087 0.095,-0.013C0.026,0.034 -0.012,0.094 -0.032,0.137C-0.027,0.094 -0.015,0.045 0.009,-0.005Z"
                    style="fill:url(#_Linear25);fill-rule:nonzero;"
                />
            </g>
            <g
                transform="matrix(428.470612,368.470612,368.470612,-428.470612,124.298901,498.951595)"
            >
                <path
                    d="M0.018,0.029C0.044,-0.013 0.092,-0.071 0.169,-0.11C0.293,-0.174 0.424,-0.12 0.526,-0.123C0.593,-0.126 0.682,-0.165 0.804,-0.108C0.952,-0.038 1.004,0.087 1.004,0.087C0.796,-0.131 0.584,-0.038 0.509,-0.008C0.448,0.016 0.399,0.029 0.399,0.029C0.399,0.029 0.46,0.076 0.553,0.076C0.585,0.077 0.619,0.073 0.644,0.07C0.668,0.066 0.684,0.063 0.685,0.063C0.668,0.068 0.658,0.073 0.658,0.073C0.549,0.133 0.479,0.132 0.437,0.131C0.342,0.128 0.301,0.096 0.219,0.091C0.183,0.09 0.147,0.094 0.111,0.109C0.041,0.14 0.014,0.206 0.014,0.206C0.014,0.206 -0.005,0.13 0.018,0.029Z"
                    style="fill:url(#_Linear26);fill-rule:nonzero;"
                />
            </g>
            <g
                transform="matrix(337.880737,175.057999,175.057999,-337.880737,278.320564,687.667648)"
            >
                <path
                    d="M0.145,0.069C0.244,-0 0.519,-0.208 0.893,0.037C0.893,0.037 0.947,0.085 1.009,0.173C1.01,0.174 1.012,0.18 1.013,0.181C1.018,0.196 1.022,0.21 1.026,0.223C1.026,0.224 1.026,0.225 1.027,0.226C1.03,0.24 1.033,0.252 1.036,0.263C1.036,0.265 1.039,0.277 1.039,0.278C1.039,0.281 1.041,0.29 1.041,0.292C1.041,0.292 1.041,0.292 1.041,0.292C1.042,0.296 1.045,0.318 1.045,0.318C1.045,0.32 1.046,0.327 1.046,0.328C1.047,0.333 1.047,0.336 1.047,0.336C1.045,0.333 0.968,0.16 0.757,0.079C0.755,0.078 0.746,0.075 0.744,0.075C0.741,0.074 0.733,0.071 0.731,0.071C0.729,0.07 0.723,0.068 0.722,0.068C0.717,0.067 0.713,0.066 0.709,0.065C0.707,0.064 0.699,0.062 0.696,0.062C0.692,0.061 0.687,0.06 0.683,0.059C0.681,0.059 0.666,0.057 0.664,0.057C0.664,0.057 0.664,0.057 0.664,0.057C0.662,0.057 0.654,0.056 0.652,0.056C0.65,0.056 0.641,0.055 0.639,0.055C0.633,0.055 0.626,0.055 0.619,0.055C0.617,0.055 0.606,0.055 0.603,0.056C0.601,0.056 0.588,0.057 0.588,0.057C0.585,0.057 0.583,0.057 0.581,0.058C0.58,0.058 0.58,0.058 0.58,0.058C0.575,0.058 0.571,0.059 0.566,0.06C0.554,0.062 0.542,0.064 0.531,0.067C0.526,0.068 0.522,0.07 0.518,0.071C0.518,0.071 0.517,0.071 0.517,0.071C0.515,0.072 0.507,0.074 0.505,0.075C0.499,0.077 0.493,0.079 0.487,0.081C0.483,0.083 0.472,0.087 0.47,0.088C0.468,0.089 0.452,0.096 0.45,0.097C0.441,0.102 0.432,0.106 0.425,0.111C0.425,0.111 0.424,0.111 0.424,0.111C0.423,0.111 0.4,0.122 0.367,0.135C0.332,0.148 0.285,0.165 0.237,0.176C0.103,0.207 -0.001,0.16 -0.001,0.16C-0.001,0.16 0.066,0.123 0.145,0.069Z"
                    style="fill:url(#_Linear27);fill-rule:nonzero;"
                />
            </g>
        </g>
    </g>
    <defs><filter
            id="seamfill"
            x="-5%"
            y="-5%"
            width="110%"
            height="110%"
        ><feMorphology
                in="SourceGraphic"
                operator="dilate"
                radius="0.45"
            /></filter>
        <linearGradient
            id="_Linear1"
            x1="0"
            y1="0"
            x2="1"
            y2="0"
            gradientUnits="userSpaceOnUse"
            gradientTransform="matrix(1,0,0,-1,0,-0.000048)"
        ><stop
                offset="0"
                style="stop-color:rgb(222,218,245);stop-opacity:1"
            /><stop
                offset="1"
                style="stop-color:rgb(251,246,252);stop-opacity:1"
            /></linearGradient>
        <linearGradient
            id="_Linear2"
            x1="0"
            y1="0"
            x2="1"
            y2="0"
            gradientUnits="userSpaceOnUse"
            gradientTransform="matrix(1,0,0,-1,0,-0.000002)"
        ><stop
                offset="0"
                style="stop-color:rgb(159,156,223);stop-opacity:1"
            /><stop
                offset="0.38"
                style="stop-color:rgb(183,180,233);stop-opacity:1"
            /><stop
                offset="1"
                style="stop-color:rgb(180,177,233);stop-opacity:1"
            /></linearGradient>
        <linearGradient
            id="_Linear3"
            x1="0"
            y1="0"
            x2="1"
            y2="0"
            gradientUnits="userSpaceOnUse"
            gradientTransform="matrix(1,0,0,-1,0,-0.000003)"
        ><stop
                offset="0"
                style="stop-color:rgb(243,240,251);stop-opacity:1"
            /><stop
                offset="0.94"
                style="stop-color:rgb(160,161,219);stop-opacity:1"
            /><stop
                offset="1"
                style="stop-color:rgb(160,161,219);stop-opacity:1"
            /></linearGradient>
        <linearGradient
            id="_Linear4"
            x1="0"
            y1="0"
            x2="1"
            y2="0"
            gradientUnits="userSpaceOnUse"
            gradientTransform="matrix(1,-0,-0,-1,0,0.001045)"
        ><stop
                offset="0"
                style="stop-color:rgb(75,76,152);stop-opacity:1"
            /><stop
                offset="1"
                style="stop-color:rgb(49,51,108);stop-opacity:1"
            /></linearGradient>
        <linearGradient
            id="_Linear5"
            x1="0"
            y1="0"
            x2="1"
            y2="0"
            gradientUnits="userSpaceOnUse"
            gradientTransform="matrix(1,-0,-0,-1,0,-0.014245)"
        ><stop
                offset="0"
                style="stop-color:rgb(150,148,224);stop-opacity:1"
            /><stop
                offset="1"
                style="stop-color:rgb(213,210,243);stop-opacity:1"
            /></linearGradient>
        <linearGradient
            id="_Linear6"
            x1="0"
            y1="0"
            x2="1"
            y2="0"
            gradientUnits="userSpaceOnUse"
            gradientTransform="matrix(1,0,0,-1,0,0.006086)"
        ><stop
                offset="0"
                style="stop-color:rgb(221,216,246);stop-opacity:1"
            /><stop
                offset="1"
                style="stop-color:rgb(251,249,254);stop-opacity:1"
            /></linearGradient>
        <linearGradient
            id="_Linear7"
            x1="0"
            y1="0"
            x2="1"
            y2="0"
            gradientUnits="userSpaceOnUse"
            gradientTransform="matrix(1,-0,-0,-1,0,-0.000212)"
        ><stop
                offset="0"
                style="stop-color:rgb(80,78,158);stop-opacity:1"
            /><stop
                offset="1"
                style="stop-color:rgb(61,59,131);stop-opacity:1"
            /></linearGradient>
        <linearGradient
            id="_Linear8"
            x1="0"
            y1="0"
            x2="1"
            y2="0"
            gradientUnits="userSpaceOnUse"
            gradientTransform="matrix(1,0,0,-1,0,0.19326)"
        ><stop
                offset="0"
                style="stop-color:rgb(173,171,229);stop-opacity:1"
            /><stop
                offset="1"
                style="stop-color:rgb(200,194,241);stop-opacity:1"
            /></linearGradient>
        <linearGradient
            id="_Linear9"
            x1="0"
            y1="0"
            x2="1"
            y2="0"
            gradientUnits="userSpaceOnUse"
            gradientTransform="matrix(1,0,0,-1,0,-0.037104)"
        ><stop
                offset="0"
                style="stop-color:rgb(212,210,251);stop-opacity:1"
            /><stop
                offset="1"
                style="stop-color:rgb(216,210,249);stop-opacity:1"
            /></linearGradient>
        <linearGradient
            id="_Linear10"
            x1="0"
            y1="0"
            x2="1"
            y2="0"
            gradientUnits="userSpaceOnUse"
            gradientTransform="matrix(0.888373,-0.459122,-0.459122,-0.888373,0.047425,0.195058)"
        ><stop
                offset="0"
                style="stop-color:rgb(222,214,249);stop-opacity:1"
            /><stop
                offset="1"
                style="stop-color:rgb(234,230,253);stop-opacity:1"
            /></linearGradient>
        <linearGradient
            id="_Linear11"
            x1="0"
            y1="0"
            x2="1"
            y2="0"
            gradientUnits="userSpaceOnUse"
            gradientTransform="matrix(1,0,0,-1,0,0.052497)"
        ><stop
                offset="0"
                style="stop-color:rgb(78,78,153);stop-opacity:1"
            /><stop
                offset="1"
                style="stop-color:rgb(109,107,194);stop-opacity:1"
            /></linearGradient>
        <linearGradient
            id="_Linear12"
            x1="0"
            y1="0"
            x2="1"
            y2="0"
            gradientUnits="userSpaceOnUse"
            gradientTransform="matrix(1,0,0,-1,0,0.036524)"
        ><stop
                offset="0"
                style="stop-color:rgb(212,157,222);stop-opacity:1"
            /><stop
                offset="1"
                style="stop-color:rgb(59,57,133);stop-opacity:1"
            /></linearGradient>
        <linearGradient
            id="_Linear13"
            x1="0"
            y1="0"
            x2="1"
            y2="0"
            gradientUnits="userSpaceOnUse"
            gradientTransform="matrix(1,-0,-0,-1,0,-0.014712)"
        ><stop
                offset="0"
                style="stop-color:rgb(141,138,219);stop-opacity:1"
            /><stop
                offset="0.5"
                style="stop-color:rgb(186,184,236);stop-opacity:1"
            /><stop
                offset="1"
                style="stop-color:rgb(159,156,224);stop-opacity:1"
            /></linearGradient>
        <linearGradient
            id="_Linear14"
            x1="0"
            y1="0"
            x2="1"
            y2="0"
            gradientUnits="userSpaceOnUse"
            gradientTransform="matrix(1,0,0,-1,0,-0.000013)"
        ><stop
                offset="0"
                style="stop-color:rgb(215,209,243);stop-opacity:1"
            /><stop
                offset="1"
                style="stop-color:rgb(238,234,248);stop-opacity:1"
            /></linearGradient>
        <linearGradient
            id="_Linear15"
            x1="0"
            y1="0"
            x2="1"
            y2="0"
            gradientUnits="userSpaceOnUse"
            gradientTransform="matrix(1,0,0,-1,0,-0.009559)"
        ><stop
                offset="0"
                style="stop-color:rgb(226,221,253);stop-opacity:1"
            /><stop
                offset="1"
                style="stop-color:rgb(252,248,249);stop-opacity:1"
            /></linearGradient>
        <linearGradient
            id="_Linear16"
            x1="0"
            y1="0"
            x2="1"
            y2="0"
            gradientUnits="userSpaceOnUse"
            gradientTransform="matrix(1,0,0,-1,0,-0.013474)"
        ><stop
                offset="0"
                style="stop-color:rgb(222,218,245);stop-opacity:1"
            /><stop
                offset="1"
                style="stop-color:rgb(251,246,252);stop-opacity:1"
            /></linearGradient>
        <linearGradient
            id="_Linear17"
            x1="0"
            y1="0"
            x2="1"
            y2="0"
            gradientUnits="userSpaceOnUse"
            gradientTransform="matrix(1,0,0,-1,0,0.001771)"
        ><stop
                offset="0"
                style="stop-color:rgb(222,218,245);stop-opacity:1"
            /><stop
                offset="1"
                style="stop-color:rgb(251,246,252);stop-opacity:1"
            /></linearGradient>
        <linearGradient
            id="_Linear18"
            x1="0"
            y1="0"
            x2="1"
            y2="0"
            gradientUnits="userSpaceOnUse"
            gradientTransform="matrix(1,0,0,-1,0,-0.000011)"
        ><stop
                offset="0"
                style="stop-color:rgb(208,206,242);stop-opacity:1"
            /><stop
                offset="1"
                style="stop-color:rgb(227,222,244);stop-opacity:1"
            /></linearGradient>
        <linearGradient
            id="_Linear19"
            x1="0"
            y1="0"
            x2="1"
            y2="0"
            gradientUnits="userSpaceOnUse"
            gradientTransform="matrix(1,-0,-0,-1,0,0.000004)"
        ><stop
                offset="0"
                style="stop-color:rgb(233,228,252);stop-opacity:1"
            /><stop
                offset="1"
                style="stop-color:rgb(250,245,251);stop-opacity:1"
            /></linearGradient>
        <linearGradient
            id="_Linear20"
            x1="0"
            y1="0"
            x2="1"
            y2="0"
            gradientUnits="userSpaceOnUse"
            gradientTransform="matrix(1,0,0,-1,0,0.055088)"
        ><stop
                offset="0"
                style="stop-color:rgb(75,75,158);stop-opacity:1"
            /><stop
                offset="1"
                style="stop-color:rgb(52,53,110);stop-opacity:1"
            /></linearGradient>
        <linearGradient
            id="_Linear21"
            x1="0"
            y1="0"
            x2="1"
            y2="0"
            gradientUnits="userSpaceOnUse"
            gradientTransform="matrix(1,0,0,-1,0,-0.000004)"
        ><stop
                offset="0"
                style="stop-color:rgb(53,51,115);stop-opacity:1"
            /><stop
                offset="1"
                style="stop-color:rgb(52,50,109);stop-opacity:1"
            /></linearGradient>
        <linearGradient
            id="_Linear22"
            x1="0"
            y1="0"
            x2="1"
            y2="0"
            gradientUnits="userSpaceOnUse"
            gradientTransform="matrix(1,0,0,-1,0,-0.000005)"
        ><stop
                offset="0"
                style="stop-color:rgb(18,25,64);stop-opacity:1"
            /><stop
                offset="1"
                style="stop-color:rgb(17,27,73);stop-opacity:1"
            /></linearGradient>
        <linearGradient
            id="_Linear23"
            x1="0"
            y1="0"
            x2="1"
            y2="0"
            gradientUnits="userSpaceOnUse"
            gradientTransform="matrix(1,0,0,-1,0,0.000012)"
        ><stop
                offset="0"
                style="stop-color:rgb(240,231,252);stop-opacity:1"
            /><stop
                offset="0.36"
                style="stop-color:rgb(179,172,234);stop-opacity:1"
            /><stop
                offset="0.99"
                style="stop-color:rgb(204,191,240);stop-opacity:1"
            /><stop
                offset="1"
                style="stop-color:rgb(204,191,240);stop-opacity:1"
            /></linearGradient>
        <linearGradient
            id="_Linear24"
            x1="0"
            y1="0"
            x2="1"
            y2="0"
            gradientUnits="userSpaceOnUse"
            gradientTransform="matrix(1,0,0,-1,0,0)"
        ><stop
                offset="0"
                style="stop-color:rgb(204,169,236);stop-opacity:1"
            /><stop
                offset="0.27"
                style="stop-color:rgb(147,126,219);stop-opacity:1"
            /><stop
                offset="0.48"
                style="stop-color:rgb(150,136,221);stop-opacity:1"
            /><stop
                offset="0.73"
                style="stop-color:rgb(189,181,238);stop-opacity:1"
            /><stop
                offset="1"
                style="stop-color:rgb(207,202,243);stop-opacity:1"
            /></linearGradient>
        <linearGradient
            id="_Linear25"
            x1="0"
            y1="0"
            x2="1"
            y2="0"
            gradientUnits="userSpaceOnUse"
            gradientTransform="matrix(1,0,0,-1,0,0.000003)"
        ><stop
                offset="0"
                style="stop-color:rgb(226,199,249);stop-opacity:1"
            /><stop
                offset="0.35"
                style="stop-color:rgb(216,187,242);stop-opacity:1"
            /><stop
                offset="0.66"
                style="stop-color:rgb(195,176,239);stop-opacity:1"
            /><stop
                offset="0.89"
                style="stop-color:rgb(214,205,243);stop-opacity:1"
            /><stop
                offset="1"
                style="stop-color:rgb(214,205,243);stop-opacity:1"
            /></linearGradient>
        <linearGradient
            id="_Linear26"
            x1="0"
            y1="0"
            x2="1"
            y2="0"
            gradientUnits="userSpaceOnUse"
            gradientTransform="matrix(1,0,0,-1,0,0.032519)"
        ><stop
                offset="0"
                style="stop-color:rgb(255,236,243);stop-opacity:1"
            /><stop
                offset="0.3"
                style="stop-color:rgb(255,236,243);stop-opacity:1"
            /><stop
                offset="0.94"
                style="stop-color:rgb(215,207,245);stop-opacity:1"
            /><stop
                offset="1"
                style="stop-color:rgb(215,207,245);stop-opacity:1"
            /></linearGradient>
        <linearGradient
            id="_Linear27"
            x1="0"
            y1="0"
            x2="1"
            y2="0"
            gradientUnits="userSpaceOnUse"
            gradientTransform="matrix(1,0,0,-1,0,0.128443)"
        ><stop
                offset="0"
                style="stop-color:rgb(224,215,246);stop-opacity:1"
            /><stop
                offset="0.34"
                style="stop-color:rgb(212,203,243);stop-opacity:1"
            /><stop
                offset="1"
                style="stop-color:rgb(217,212,246);stop-opacity:1"
            /></linearGradient>
    </defs>
</svg>
